<svg aria-hidden="true" style="position: absolute; width: 0; height: 0; overflow: hidden;" version="1.1" xmlns="http://www.w3.org/2000/svg" xmlns:xlink="http://www.w3.org/1999/xlink">
<defs>
<symbol id="icon-send" viewBox="0 0 32 32">
<path fill="#fff" style="fill: var(--color1, #fff)" d="M32 0l-32 18 10.227 3.787 15.773-14.787-11.997 16.187 0.009 0.003-0.012-0.003v8.813l5.735-6.691 7.267 2.691 4.999-28z"></path>
</symbol>
<symbol id="icon-person" viewBox="0 0 32 32">
<path d="M16 16c4.418 0 8-3.582 8-8s-3.582-8-8-8v0c-4.418 0-8 3.582-8 8s3.582 8 8 8v0zM16 20c-5.339 0-16 2.68-16 8v2c0 1.099 0.901 2 2 2h28c1.099 0 2-0.901 2-2v-2c0-5.32-10.661-8-16-8z"></path>
</symbol>
<symbol id="icon-yes" viewBox="0 0 32 32">
<path fill="#fff" stroke="#fff" stroke-width="0.4923" stroke-miterlimit="4" stroke-linecap="butt" stroke-linejoin="miter" style="fill: var(--color1, #fff); stroke: var(--color1, #fff)" d="M4.817 15.39l-0.17-0.162-0.17 0.16-2.373 2.25 0.187 0.18 8.775 8.369 0.17-0.162 18.658-17.799-0.187-0.177-2.341-2.233-0.17 0.162-16.13 15.375-6.25-5.962z"></path>
</symbol>
<symbol id="icon-envelope-modal" viewBox="0 0 32 32">
<path d="M28 4h-24c-1.65 0-2.986 1.35-2.986 3l-0.014 18c0 1.65 1.35 3 3 3h24c1.65 0 3-1.35 3-3v-18c0-1.65-1.35-3-3-3zM27.4 10.376l-10.604 6.628c-0.226 0.141-0.501 0.225-0.795 0.225s-0.569-0.084-0.801-0.229l0.006 0.004-10.606-6.63c-0.378-0.226-0.627-0.632-0.627-1.097 0-0.704 0.57-1.274 1.274-1.274 0.262 0 0.505 0.079 0.707 0.214l-0.005-0.003 10.050 6.286 10.050-6.286c0.198-0.132 0.441-0.211 0.703-0.211 0.704 0 1.274 0.57 1.274 1.274 0 0.465-0.249 0.871-0.621 1.094l-0.006 0.003z"></path>
</symbol>
<symbol id="icon-phone" viewBox="0 0 32 32">
<path d="M27.419 20.852l-4.201-0.48c-1.009-0.116-2.002 0.232-2.713 0.943l-3.044 3.044c-4.681-2.382-8.519-6.203-10.901-10.901l3.060-3.060c0.711-0.711 1.059-1.704 0.943-2.713l-0.48-4.168c-0.198-1.671-1.604-2.928-3.292-2.928h-2.862c-1.869 0-3.424 1.555-3.308 3.424 0.877 14.126 12.174 25.407 26.284 26.284 1.869 0.116 3.424-1.439 3.424-3.308v-2.861c0.016-1.671-1.241-3.077-2.911-3.275z"></path>
</symbol>
</defs>
</svg>
